<svg id="Livello_1" data-name="Livello 1" xmlns="http://www.w3.org/2000/svg" viewBox="0 0 653.57 221.07"><path d="M210.63,99.84h0a252.52,252.52,0,0,1-93.71-18L53.1,56.31h36A65.49,65.49,0,0,1,113.4,61Z" style="fill:#fff"/><path d="M408.4,29.14h23A259.63,259.63,0,0,1,337.7,46.7l-125.06,0,33.41-13a67.23,67.23,0,0,1,24.31-4.56Z" style="fill:#fff"/><path d="M229.75,29.14h0a259.67,259.67,0,0,1-93.7,17.56L34,46.74l33.4-13A67.23,67.23,0,0,1,91.7,29.21Z" style="fill:#fff"/><path d="M34,127h0a259.63,259.63,0,0,1,93.7-17.56l102.06,0-33.41,13A67.44,67.44,0,0,1,172,126.94Z" style="fill:#fff"/><path d="M607.23,29.14h0a259.67,259.67,0,0,1-93.7,17.56l-102.06,0,33.41-13a67.22,67.22,0,0,1,24.3-4.56Z" style="fill:#fff"/><path d="M339.52,67.9h-9.71a5,5,0,0,1-5.2-4.92,10,10,0,0,0-.42-3.14,10.7,10.7,0,0,0-20.91,2.85v.06a5,5,0,0,1-5,5.15h-9.9c22.95,6.13,22.95,38.49,0,44.62h9.7a5,5,0,0,1,5.21,4.92,10,10,0,0,0,.42,3.14,10.7,10.7,0,0,0,20.91-2.85v-.06a5,5,0,0,1,5-5.15h9.9C316.57,106.39,316.57,74,339.52,67.9Z" style="fill:#fff"/><path d="M619.59,127.61h0a252.61,252.61,0,0,1-93.72-18l-63.81-25.5h36a65.47,65.47,0,0,1,24.3,4.67Z" style="fill:#fff"/><path d="M460.62,68h-9.4a5,5,0,0,1-5-4.91,10.24,10.24,0,0,0-.41-3.14,10.33,10.33,0,0,0-20.26,2.85v.06A5,5,0,0,1,420.65,68h-9.59c22.24,6.13,22.24,38.46,0,44.58h9.41a5,5,0,0,1,5,4.91,10.22,10.22,0,0,0,.4,3.14,10.33,10.33,0,0,0,20.27-2.85v-.06a5,5,0,0,1,4.85-5.14h9.59C438.38,106.42,438.38,74.09,460.62,68Z" style="fill:#fff"/><path d="M51.36,171.42a5.19,5.19,0,0,0-.54-2.41,5.06,5.06,0,0,0-1.46-1.72,7,7,0,0,0-2.12-1,8.84,8.84,0,0,0-2.53-.36,7.9,7.9,0,0,0-2.2.3,6.54,6.54,0,0,0-1.87.86,4.49,4.49,0,0,0-1.3,1.38,3.74,3.74,0,0,0-.48,1.91v.24a3.87,3.87,0,0,0,.48,2,4.05,4.05,0,0,0,1.42,1.4,8.71,8.71,0,0,0,2.35,1,28.07,28.07,0,0,0,3.28.67q4.41.67,6.5,2.58A6.61,6.61,0,0,1,55,183.28v.48a8.71,8.71,0,0,1-.62,3.31,7,7,0,0,1-1.85,2.58,8.73,8.73,0,0,1-3,1.69,14.82,14.82,0,0,1-8.92-.18A9.77,9.77,0,0,1,37.12,189,9.14,9.14,0,0,1,35,185.75a11.23,11.23,0,0,1-.72-4.07v-1.2h3.37v1a7.1,7.1,0,0,0,2,5.53,8.06,8.06,0,0,0,5.63,1.84A7,7,0,0,0,50,187.43a4.62,4.62,0,0,0,1.58-3.67v-.24A3.9,3.9,0,0,0,50,180.15a12.44,12.44,0,0,0-5.27-1.68,20,20,0,0,1-3.83-.86,9.82,9.82,0,0,1-2.9-1.52,6.29,6.29,0,0,1-1.84-2.27,7,7,0,0,1-.65-3.12v-.48a6.57,6.57,0,0,1,.69-3,7.06,7.06,0,0,1,1.9-2.36A8.67,8.67,0,0,1,41,163.3a13.4,13.4,0,0,1,8,.14,9.74,9.74,0,0,1,3.14,1.83,7.44,7.44,0,0,1,2,2.68,8.15,8.15,0,0,1,.66,3.23v1.68H51.36Z" style="fill:#fff"/><path d="M79.25,181.68a10.9,10.9,0,0,1-.82,4.38,9.6,9.6,0,0,1-2.18,3.21,9.3,9.3,0,0,1-3.19,2,10.93,10.93,0,0,1-7.59,0,9.41,9.41,0,0,1-3.17-2,9.6,9.6,0,0,1-2.18-3.21,10.9,10.9,0,0,1-.82-4.38v-.48a10.85,10.85,0,0,1,.82-4.35,9.78,9.78,0,0,1,2.2-3.23,9.31,9.31,0,0,1,3.19-2,10.76,10.76,0,0,1,7.53,0,9.31,9.31,0,0,1,3.19,2,9.78,9.78,0,0,1,2.2,3.23,10.85,10.85,0,0,1,.82,4.35Zm-10,7.29a7,7,0,0,0,2.66-.5A6.13,6.13,0,0,0,74.08,187a6.82,6.82,0,0,0,1.45-2.31,8.42,8.42,0,0,0,.52-3v-.48a8.27,8.27,0,0,0-.52-2.95,6.88,6.88,0,0,0-1.45-2.3,6.73,6.73,0,0,0-2.16-1.51,6.75,6.75,0,0,0-5.29,0A6.73,6.73,0,0,0,64.47,176a6.88,6.88,0,0,0-1.45,2.3,8.27,8.27,0,0,0-.52,2.95v.48a8.42,8.42,0,0,0,.52,3A6.82,6.82,0,0,0,64.47,187a6,6,0,0,0,2.14,1.46A7,7,0,0,0,69.28,189Z" style="fill:#fff"/><path d="M99.21,171.5h3.12v19.87H99.21v-3.6h-.48a8,8,0,0,1-2.53,3,6.6,6.6,0,0,1-4,1.13,8,8,0,0,1-3-.55,6.16,6.16,0,0,1-2.36-1.62,7.38,7.38,0,0,1-1.53-2.68,11.69,11.69,0,0,1-.54-3.73V171.5h3.13V183a6.8,6.8,0,0,0,1.28,4.57A5,5,0,0,0,93.12,189,5.53,5.53,0,0,0,97.59,187a7.86,7.86,0,0,0,1.62-5.19Z" style="fill:#fff"/><path d="M108.87,171.5h6.25v-8.18h3.12v8.18h7.7v2.88h-7.7v12.91c0,.8.36,1.2,1.09,1.2H125v2.88H118.2a3,3,0,0,1-2.22-.88,3,3,0,0,1-.86-2.24V174.38h-6.25Z" style="fill:#fff"/><path d="M137.2,191.37h-3.13V163.32h3.13V175.1h.48a7.45,7.45,0,0,1,2.58-3,7.11,7.11,0,0,1,4.07-1.12,6.92,6.92,0,0,1,5.27,2.14c1.35,1.43,2,3.58,2,6.43v11.86H148.5V180.15a6.83,6.83,0,0,0-1.4-4.68,4.89,4.89,0,0,0-3.81-1.57,5.5,5.5,0,0,0-4.47,1.95A7.83,7.83,0,0,0,137.2,181Z" style="fill:#fff"/><path d="M160.88,182.4a7.1,7.1,0,0,0,1.84,4.77,6.36,6.36,0,0,0,4.81,1.8,8.51,8.51,0,0,0,2.45-.32,5.7,5.7,0,0,0,1.78-.88,5.08,5.08,0,0,0,1.2-1.3,7.19,7.19,0,0,0,.74-1.59l3,.8a8.74,8.74,0,0,1-3.11,4.51,9.77,9.77,0,0,1-6.11,1.75,9.93,9.93,0,0,1-3.9-.75,8.66,8.66,0,0,1-3.07-2.1,9.88,9.88,0,0,1-2-3.24,11.63,11.63,0,0,1-.72-4.17v-1a10,10,0,0,1,.74-3.89,9.24,9.24,0,0,1,2.06-3.11,9.54,9.54,0,0,1,3.11-2,9.8,9.8,0,0,1,3.86-.74,9.29,9.29,0,0,1,4.23.9,9.53,9.53,0,0,1,2.93,2.22,9.24,9.24,0,0,1,2.22,5.77v2.57Zm6.65-8.5a7.06,7.06,0,0,0-2.46.42,6.36,6.36,0,0,0-2,1.19,6.1,6.1,0,0,0-1.41,1.78,6.63,6.63,0,0,0-.7,2.22h12.82a5.7,5.7,0,0,0-2-4.08,6.56,6.56,0,0,0-2-1.13A6.78,6.78,0,0,0,167.53,173.9Z" style="fill:#fff"/><path d="M182,171.5h7.21v2.64h.48a5.15,5.15,0,0,1,2.17-2.42,6.45,6.45,0,0,1,3.2-.78,6.33,6.33,0,0,1,4.85,2,8.54,8.54,0,0,1,2,5.73l-3.29.48a5.2,5.2,0,0,0-1.32-4A4.6,4.6,0,0,0,194,173.9a4.24,4.24,0,0,0-3.65,1.81,5.76,5.76,0,0,0-.88,2,10.25,10.25,0,0,0-.28,2.4v8.42h5v2.88H181.52v-2.88h4.57V174.38H182Z" style="fill:#fff"/><path d="M210.77,191.37h-3.13V171.5h3.13v3.37h.48a6.52,6.52,0,0,1,6.41-3.93,7.22,7.22,0,0,1,5.49,2.14c1.37,1.43,2,3.58,2,6.43v11.86h-3.13V180.15a6.83,6.83,0,0,0-1.4-4.68,4.87,4.87,0,0,0-3.81-1.57,5.51,5.51,0,0,0-4.47,1.95,7.83,7.83,0,0,0-1.62,5.19Z" style="fill:#fff"/><path d="M270.74,163.32h19.71v3.13h-8.17v24.92h-3.37V166.45h-8.17Z" style="fill:#fff"/><path d="M296.82,188.49h7V174.38h-6.26V171.5h9.38v17h6.49v2.88H296.82Zm5.69-22.92a2.81,2.81,0,0,1,4.79-2,2.81,2.81,0,0,1-4,4A2.73,2.73,0,0,1,302.51,165.57Z" style="fill:#fff"/><path d="M323.15,182.4a7.1,7.1,0,0,0,1.84,4.77,6.36,6.36,0,0,0,4.81,1.8,8.51,8.51,0,0,0,2.45-.32,5.7,5.7,0,0,0,1.78-.88,4.91,4.91,0,0,0,1.2-1.3,7.19,7.19,0,0,0,.74-1.59l3,.8a8.74,8.74,0,0,1-3.11,4.51,9.77,9.77,0,0,1-6.11,1.75,9.93,9.93,0,0,1-3.9-.75,8.66,8.66,0,0,1-3.07-2.1,9.88,9.88,0,0,1-2-3.24,11.63,11.63,0,0,1-.72-4.17v-1a10,10,0,0,1,.74-3.89,9.24,9.24,0,0,1,2.06-3.11,9.54,9.54,0,0,1,3.11-2,9.8,9.8,0,0,1,3.86-.74,9.29,9.29,0,0,1,4.23.9,9.53,9.53,0,0,1,2.93,2.22,9.24,9.24,0,0,1,2.22,5.77v2.57Zm6.65-8.5a7.06,7.06,0,0,0-2.46.42,6.36,6.36,0,0,0-2,1.19,6.1,6.1,0,0,0-1.41,1.78,6.63,6.63,0,0,0-.7,2.22h12.82a5.7,5.7,0,0,0-2-4.08,6.56,6.56,0,0,0-2-1.13A6.78,6.78,0,0,0,329.8,173.9Z" style="fill:#fff"/><path d="M344.27,171.5h7.21v2.64H352a5.15,5.15,0,0,1,2.17-2.42,6.45,6.45,0,0,1,3.2-.78,6.33,6.33,0,0,1,4.85,2,8.49,8.49,0,0,1,2,5.73l-3.29.48a5.2,5.2,0,0,0-1.32-4,4.6,4.6,0,0,0-3.25-1.23,4.48,4.48,0,0,0-2.14.48,4.58,4.58,0,0,0-1.51,1.33,5.76,5.76,0,0,0-.88,2,10.25,10.25,0,0,0-.28,2.4v8.42h5v2.88H343.79v-2.88h4.57V174.38h-4.09Z" style="fill:#fff"/><path d="M438.63,191.37h-3.37V182a2.42,2.42,0,0,0-.48-1.61,2.13,2.13,0,0,0-1.68-.56h-8.74v11.54H421V163.32h10a10.25,10.25,0,0,1,3.76.63,7.62,7.62,0,0,1,2.67,1.66,6.78,6.78,0,0,1,1.6,2.42,7.91,7.91,0,0,1,.54,2.91v1.2a6.41,6.41,0,0,1-.86,3.13,5.64,5.64,0,0,1-2.66,2.4v.48a3.12,3.12,0,0,1,1.88,1,3.17,3.17,0,0,1,.68,2.17Zm-14.27-14.66h6.26a6.25,6.25,0,0,0,4.22-1.22,4.52,4.52,0,0,0,1.39-3.59v-.72a4.47,4.47,0,0,0-1.39-3.43,6,6,0,0,0-4.22-1.3h-6.26Z" style="fill:#fff"/><path d="M464.36,181.68a11.07,11.07,0,0,1-.82,4.38,9.62,9.62,0,0,1-2.19,3.21,9.35,9.35,0,0,1-3.18,2,11,11,0,0,1-7.6,0,9.27,9.27,0,0,1-3.16-2,9.62,9.62,0,0,1-2.19-3.21,10.9,10.9,0,0,1-.82-4.38v-.48a10.85,10.85,0,0,1,.82-4.35,9.66,9.66,0,0,1,2.21-3.23,9.26,9.26,0,0,1,3.18-2,10.79,10.79,0,0,1,7.54,0,9.26,9.26,0,0,1,3.18,2,9.81,9.81,0,0,1,2.21,3.23,11,11,0,0,1,.82,4.35Zm-10,7.29a7,7,0,0,0,2.66-.5,6.17,6.17,0,0,0,2.15-1.46,7,7,0,0,0,1.44-2.31,8.21,8.21,0,0,0,.52-3v-.48a8.06,8.06,0,0,0-.52-2.95,7,7,0,0,0-1.44-2.3,6.88,6.88,0,0,0-2.17-1.51,6.75,6.75,0,0,0-5.29,0,6.71,6.71,0,0,0-3.6,3.81,8.06,8.06,0,0,0-.52,2.95v.48a8.21,8.21,0,0,0,.52,3,6.8,6.8,0,0,0,1.44,2.31,6.13,6.13,0,0,0,2.14,1.46A7.09,7.09,0,0,0,454.38,189Z" style="fill:#fff"/><path d="M472.53,191.37h-3.12V163.32h3.12v11.3H473a6.94,6.94,0,0,1,2.89-2.74,8.63,8.63,0,0,1,4-.94,9.08,9.08,0,0,1,3.49.68,8.69,8.69,0,0,1,2.91,2,9.28,9.28,0,0,1,2,3.17A11.69,11.69,0,0,1,489,181v.8a12,12,0,0,1-.72,4.32,9,9,0,0,1-2,3.17,8.33,8.33,0,0,1-2.95,1.94,9.47,9.47,0,0,1-3.56.67,9.59,9.59,0,0,1-2-.22,8.23,8.23,0,0,1-3.56-1.81,6,6,0,0,1-1.29-1.58h-.48Zm6.65-2.4a6.87,6.87,0,0,0,2.65-.5,6.29,6.29,0,0,0,2.1-1.42,6.45,6.45,0,0,0,1.4-2.25,8.17,8.17,0,0,0,.51-3V181a7.94,7.94,0,0,0-.51-2.91,6.5,6.5,0,0,0-1.4-2.24,6.24,6.24,0,0,0-2.12-1.46,6.61,6.61,0,0,0-2.63-.53,6.27,6.27,0,0,0-2.6.54,6.7,6.7,0,0,0-2.1,1.51,7,7,0,0,0-1.43,2.3,8.27,8.27,0,0,0-.52,2.95v.48a8.32,8.32,0,0,0,.52,3,6.94,6.94,0,0,0,1.43,2.31,6.31,6.31,0,0,0,2.1,1.48A6.42,6.42,0,0,0,479.18,189Z" style="fill:#fff"/><path d="M513.41,181.68a10.9,10.9,0,0,1-.83,4.38,9.45,9.45,0,0,1-2.18,3.21,9.3,9.3,0,0,1-3.19,2,10.93,10.93,0,0,1-7.59,0,9.41,9.41,0,0,1-3.17-2,9.74,9.74,0,0,1-2.18-3.21,10.9,10.9,0,0,1-.82-4.38v-.48a10.85,10.85,0,0,1,.82-4.35,9.66,9.66,0,0,1,2.21-3.23,9.26,9.26,0,0,1,3.18-2,10.76,10.76,0,0,1,7.53,0,9.21,9.21,0,0,1,3.19,2,9.64,9.64,0,0,1,2.2,3.23,10.85,10.85,0,0,1,.83,4.35Zm-10,7.29a7,7,0,0,0,2.66-.5,6.17,6.17,0,0,0,2.15-1.46,7,7,0,0,0,1.44-2.31,8.21,8.21,0,0,0,.52-3v-.48a8.06,8.06,0,0,0-.52-2.95,7,7,0,0,0-1.44-2.3,6.88,6.88,0,0,0-2.17-1.51,6.75,6.75,0,0,0-5.29,0,6.71,6.71,0,0,0-3.6,3.81,8.06,8.06,0,0,0-.52,2.95v.48a8.21,8.21,0,0,0,.52,3,6.65,6.65,0,0,0,1.44,2.31,6.13,6.13,0,0,0,2.14,1.46A7.09,7.09,0,0,0,503.43,189Z" style="fill:#fff"/><path d="M518.49,171.5h6.26v-8.18h3.12v8.18h7.7v2.88h-7.7v12.91q0,1.2,1.08,1.2h5.65v2.88h-6.77a3,3,0,0,1-2.22-.88,3,3,0,0,1-.86-2.24V174.38h-6.26Z" style="fill:#fff"/><path d="M544.18,188.49h7V174.38H544.9V171.5h9.38v17h6.49v2.88H544.18Zm5.69-22.92a2.81,2.81,0,0,1,4.79-2,2.81,2.81,0,0,1-4,4A2.73,2.73,0,0,1,549.87,165.57Z" style="fill:#fff"/><path d="M586.82,184.32a10.48,10.48,0,0,1-1.1,3.05,8.79,8.79,0,0,1-2,2.42,8.63,8.63,0,0,1-2.8,1.58,10.61,10.61,0,0,1-3.57.57,11.55,11.55,0,0,1-4-.68,9.6,9.6,0,0,1-3.26-2,9.45,9.45,0,0,1-2.23-3.18,10.89,10.89,0,0,1-.82-4.33v-.48a11,11,0,0,1,.82-4.33,9.55,9.55,0,0,1,2.23-3.25,9.88,9.88,0,0,1,3.26-2,10.9,10.9,0,0,1,4-.72,10.34,10.34,0,0,1,3.49.56,8.83,8.83,0,0,1,2.82,1.58,8.43,8.43,0,0,1,2,2.43,9.55,9.55,0,0,1,1.06,3l-3.13.72a6.39,6.39,0,0,0-.58-2,5.61,5.61,0,0,0-1.24-1.72,5.9,5.9,0,0,0-1.9-1.19,7.21,7.21,0,0,0-2.61-.44,6.78,6.78,0,0,0-2.7.54,6.91,6.91,0,0,0-3.73,3.87,8,8,0,0,0-.54,3v.48a8,8,0,0,0,.54,3,6.43,6.43,0,0,0,1.5,2.27,6.73,6.73,0,0,0,2.25,1.42,7.56,7.56,0,0,0,2.76.5,6.66,6.66,0,0,0,2.59-.46,6.31,6.31,0,0,0,1.88-1.2,5.94,5.94,0,0,0,1.24-1.71,6.73,6.73,0,0,0,.62-2Z" style="fill:#fff"/><path d="M596.88,176.63a2.42,2.42,0,0,0,1.22,2.2,10.62,10.62,0,0,0,4.47,1,10,10,0,0,1,5.31,1.67,4.74,4.74,0,0,1,1.82,4v.25a5.57,5.57,0,0,1-.58,2.58,5.77,5.77,0,0,1-1.6,1.94,7.17,7.17,0,0,1-2.49,1.23,12.74,12.74,0,0,1-7.17-.2,8.46,8.46,0,0,1-2.77-1.65,6.8,6.8,0,0,1-1.66-2.32,7.85,7.85,0,0,1-.64-2.63l3-.72a5.36,5.36,0,0,0,1.77,3.67,6.06,6.06,0,0,0,4.17,1.38,6.51,6.51,0,0,0,3.54-.86,2.7,2.7,0,0,0,1.34-2.42,2.52,2.52,0,0,0-1.32-2.41,11,11,0,0,0-4.29-.92,10.11,10.11,0,0,1-5.29-1.6,4.65,4.65,0,0,1-1.84-4v-.24a4.94,4.94,0,0,1,.6-2.47,5.5,5.5,0,0,1,1.62-1.78,7.54,7.54,0,0,1,2.31-1.08,9.85,9.85,0,0,1,2.68-.36,10.08,10.08,0,0,1,3.45.54,7.88,7.88,0,0,1,2.48,1.4,6.14,6.14,0,0,1,1.55,2,7.64,7.64,0,0,1,.7,2.24l-3,.72a4.24,4.24,0,0,0-1.54-3,5.41,5.41,0,0,0-3.51-1.08,7.18,7.18,0,0,0-1.62.18,4.73,4.73,0,0,0-1.38.54,3.08,3.08,0,0,0-1,.9A2.27,2.27,0,0,0,596.88,176.63Z" style="fill:#fff"/></svg>