<svg id="Livello_1" data-name="Livello 1" xmlns="http://www.w3.org/2000/svg" viewBox="0 0 653.57 165.93"><path d="M210.63,104.2h0a252.52,252.52,0,0,1-93.71-18L53.1,60.67h36a65.48,65.48,0,0,1,24.31,4.67Z" style="fill:#fff"/><path d="M408.4,33.49h23a259.2,259.2,0,0,1-93.7,17.56l-125.06.05,33.41-13a67.22,67.22,0,0,1,24.31-4.55Z" style="fill:#fff"/><path d="M229.75,33.49h0a259.24,259.24,0,0,1-93.7,17.56L34,51.1l33.4-13A67.22,67.22,0,0,1,91.7,33.57Z" style="fill:#fff"/><path d="M34,131.37h0a259.2,259.2,0,0,1,93.7-17.56l102.06,0-33.41,13A67.45,67.45,0,0,1,172,131.3Z" style="fill:#fff"/><path d="M607.23,33.49h0a259.24,259.24,0,0,1-93.7,17.56l-102.06.05,33.41-13a67.21,67.21,0,0,1,24.3-4.55Z" style="fill:#fff"/><path d="M339.52,72.25h-9.71a5,5,0,0,1-5.2-4.92,10,10,0,0,0-.42-3.14,10.7,10.7,0,0,0-20.91,2.86v0a5,5,0,0,1-5,5.15h-9.9c22.95,6.13,22.95,38.5,0,44.63h9.7a5,5,0,0,1,5.21,4.92,10,10,0,0,0,.42,3.14,10.7,10.7,0,0,0,20.91-2.86v0a5,5,0,0,1,5-5.15h9.9C316.57,110.75,316.57,78.38,339.52,72.25Z" style="fill:#fff"/><path d="M619.59,132h0a252.61,252.61,0,0,1-93.72-18l-63.81-25.5h36a65.48,65.48,0,0,1,24.3,4.68Z" style="fill:#fff"/><path d="M460.62,72.32h-9.4a5,5,0,0,1-5-4.91,10.24,10.24,0,0,0-.41-3.14,10.33,10.33,0,0,0-20.26,2.85v.06a5,5,0,0,1-4.86,5.14h-9.59c22.24,6.12,22.24,38.45,0,44.57h9.41a5,5,0,0,1,5,4.92,10.22,10.22,0,0,0,.4,3.14,10.33,10.33,0,0,0,20.27-2.85V122a5,5,0,0,1,4.85-5.15h9.59C438.38,110.77,438.38,78.44,460.62,72.32Z" style="fill:#fff"/></svg>