<svg xmlns="http://www.w3.org/2000/svg" width="936" height="144" viewBox="0 0 936 144"><title>logolong</title><rect width="936" height="144" rx="20" fill="#090909"/><path d="M559.81,532.15H541.72a10.42,10.42,0,0,0-10.26,10.17h28.35v7.47A18.28,18.28,0,0,1,541.72,568H523.81v-7.74h17.91a10.56,10.56,0,0,0,10.35-10.17H523.81v-7.47a18.07,18.07,0,0,1,17.91-18.18h18.09Z" transform="translate(-492 -468)" fill="#e6e8e6"/><path d="M601.84,542.59v7.47a18.23,18.23,0,0,1-36.45,0v-7.47a18.23,18.23,0,0,1,36.45,0Zm-7.74,0a10.53,10.53,0,0,0-21.06,0v7.2a10.51,10.51,0,0,0,10.44,10.44,10.61,10.61,0,0,0,10.62-10.17Z" transform="translate(-492 -468)" fill="#e6e8e6"/><path d="M616.06,549.79a10.44,10.44,0,0,0,20.88,0V524.41h7.74v25.65a18.18,18.18,0,0,1-36.36,0V524.41h7.74Z" transform="translate(-492 -468)" fill="#e6e8e6"/><path d="M660,524.41h14.4v7.74H660v17.64a10.49,10.49,0,0,0,10.35,10.44h7.56V568h-7.56a18.21,18.21,0,0,1-18-17.91V515.32H660Z" transform="translate(-492 -468)" fill="#e6e8e6"/><path d="M687.88,527.74a18.14,18.14,0,0,1,28.62,14.67V568h-7.74V542.59c0-.09.09-.09,0-.18a10.44,10.44,0,0,0-20.88.18V568h-7.74V502.9h7.74Z" transform="translate(-492 -468)" fill="#e6e8e6"/><path d="M758.26,542.59v7.47H729.64a10.4,10.4,0,0,0,10.17,10.17h18.45V568H739.81a18.32,18.32,0,0,1-17.91-17.91v-7.74a18.18,18.18,0,0,1,36.36.27Zm-28.62-.27h20.88a10.44,10.44,0,0,0-20.88,0Z" transform="translate(-492 -468)" fill="#e6e8e6"/><path d="M772.48,527.74a18.12,18.12,0,0,1,10.26-3.33h7.65v7.74h-7.65a10.35,10.35,0,0,0-10.26,10.44V568h-7.65V524.41h7.65Z" transform="translate(-492 -468)" fill="#e6e8e6"/><path d="M801.46,527.74a18.14,18.14,0,0,1,28.61,14.58V568h-7.55V542.32a10.56,10.56,0,0,0-10.62-10.17,10.39,10.39,0,0,0-10.44,10.44V568h-7.74V524.41h7.74Z" transform="translate(-492 -468)" fill="#e6e8e6"/><path d="M859.5,524.41h14.4v7.74H859.5v17.64a10.49,10.49,0,0,0,10.35,10.44h7.56V568h-7.56a18.21,18.21,0,0,1-18-17.91V515.32h7.65Z" transform="translate(-492 -468)" fill="#e6e8e6"/><path d="M888.57,518.2h-7.74v-7.74h7.74Zm0,49.77h-7.74V524.41h7.74Z" transform="translate(-492 -468)" fill="#e6e8e6"/><path d="M931.41,542.59v7.47H902.79A10.4,10.4,0,0,0,913,560.23h18.45V568H913a18.32,18.32,0,0,1-17.91-17.91v-7.74a18.18,18.18,0,0,1,36.36.27Zm-28.62-.27h20.88a10.44,10.44,0,0,0-20.88,0Z" transform="translate(-492 -468)" fill="#e6e8e6"/><path d="M945.63,527.74a18.12,18.12,0,0,1,10.26-3.33h7.65v7.74h-7.65a10.35,10.35,0,0,0-10.26,10.44V568H938V524.41h7.65Z" transform="translate(-492 -468)" fill="#e6e8e6"/><path d="M988.47,527.74a18.12,18.12,0,0,1,10.26-3.33h7.65v7.74h-7.65a10.35,10.35,0,0,0-10.26,10.44V568h-7.65V524.41h7.65Z" transform="translate(-492 -468)" fill="#e6e8e6"/><path d="M1044.81,542.59v7.47a18.23,18.23,0,0,1-36.45,0v-7.47a18.23,18.23,0,0,1,36.45,0Zm-7.74,0a10.53,10.53,0,0,0-21.06,0v7.2a10.51,10.51,0,0,0,10.44,10.44,10.61,10.61,0,0,0,10.62-10.17Z" transform="translate(-492 -468)" fill="#e6e8e6"/><path d="M1058.94,527.74a18.28,18.28,0,0,1,28.8,14.85v7.2A18.34,18.34,0,0,1,1069.38,568a17.68,17.68,0,0,1-10.44-3.42V568h-7.65V550.69a3,3,0,0,1,0-.9v-7.2a3,3,0,0,1,0-.9V502.9h7.65Zm0,14.85v7.2a10.53,10.53,0,0,0,21.06.27v-7.47a10.53,10.53,0,1,0-21.06,0Z" transform="translate(-492 -468)" fill="#e6e8e6"/><path d="M1129.32,542.59v7.47a18.23,18.23,0,0,1-36.45,0v-7.47a18.23,18.23,0,0,1,36.45,0Zm-7.74,0a10.53,10.53,0,0,0-21.06,0v7.2A10.51,10.51,0,0,0,1111,560.23a10.61,10.61,0,0,0,10.62-10.17Z" transform="translate(-492 -468)" fill="#e6e8e6"/><path d="M1143.27,524.41h14.4v7.74h-14.4v17.64a10.49,10.49,0,0,0,10.35,10.44h7.56V568h-7.56a18.21,18.21,0,0,1-18-17.91V515.32h7.65Z" transform="translate(-492 -468)" fill="#e6e8e6"/><path d="M1172.34,518.2h-7.74v-7.74h7.74Zm0,49.77h-7.74V524.41h7.74Z" transform="translate(-492 -468)" fill="#e6e8e6"/><path d="M1197,524.41a18.19,18.19,0,0,1,18.18,18.18l-.27.27h-7.2l-.27-.27a10.53,10.53,0,1,0-21.06,0v7.2a10.53,10.53,0,0,0,21.06,0l.27-.27h7.2l.27.27a18.18,18.18,0,0,1-36.36.27v-7.47a18.33,18.33,0,0,1,17.28-18.18Z" transform="translate(-492 -468)" fill="#e6e8e6"/><path d="M1256.75,532.15h-18.09a10.42,10.42,0,0,0-10.26,10.17h28.35v7.47A18.28,18.28,0,0,1,1238.66,568h-17.91v-7.74h17.91A10.56,10.56,0,0,0,1249,550.06h-28.26v-7.47a18.07,18.07,0,0,1,17.91-18.18h18.09Z" transform="translate(-492 -468)" fill="#e6e8e6"/><rect x="31" y="108" width="734" height="6" fill="#e6e8e6"/><path d="M1286.35,536.78c1.64-.92,3.26-1.86,4.92-2.74q13.34-7.08,26.68-14.13l22-11.62c5.19-2.74,10.33-5.59,15.58-8.23a30.35,30.35,0,0,1,21-2.64c2.87.66,5.73,1.42,8.53,2.31a15.85,15.85,0,0,0,9.73-.1c2.29-.71,4.57-1.48,6.86-2.21a5.83,5.83,0,0,1,1.31-.25c3.24-.26,5.4,2.09,5.09,5.5a22.55,22.55,0,0,1-2.34,7.56,43,43,0,0,1-8.87,12.84c-2.12,2-4.44,3.84-7.42,4.3a18.22,18.22,0,0,1-4.72-.09c-5.84-.66-11.66-1.41-17.5-2.12-.29,0-.58,0-.95,0,1.8,8.7.5,16.78-4.67,24.08a28.79,28.79,0,0,1-13.92,10.63,29.58,29.58,0,0,1-34.93-11.76c-.19.08-.39.14-.58.24-3,1.57-6,3.17-9,4.71a3.33,3.33,0,0,0-2.15,3.07c-.25,4.28,0,8.39,2.5,12.07a16.19,16.19,0,0,0,8.16,6.08,38.48,38.48,0,0,0,13.07,2.13,95.41,95.41,0,0,0,16.78-1.47c6-1,11.86-2.37,17.71-3.9,2.34-.61,4.66-1.32,7-2a1.28,1.28,0,0,1,1.57.48,1.13,1.13,0,0,1-.06,1.45,1.7,1.7,0,0,1-.65.47c-3.68,1.6-7.32,3.31-11.07,4.73-4.79,1.8-9.63,3.51-14.53,5a98.91,98.91,0,0,1-20.39,4,54.22,54.22,0,0,1-13.65-.33c-5.26-.88-10.15-2.64-13.92-6.62a50.74,50.74,0,0,1-3.44-4.46c-.15.4-.35.93-.53,1.47-.28.84-.54,1.7-.82,2.54a6.38,6.38,0,0,1-6.63,4.46,7.07,7.07,0,0,1-6.76-6.3,102,102,0,0,1-.53-14.93,43.47,43.47,0,0,1,3-14.94,11.68,11.68,0,0,1,.73-1.28c2.36-2.34,4.72-4.67,7.07-7A12.1,12.1,0,0,0,1286.35,536.78Zm-7.9,30,.69,9a2.78,2.78,0,0,0,2.07,2.46,3.06,3.06,0,0,0,3.91-1.77c1.46-4.58,3-9.14,4.84-13.58a25.81,25.81,0,0,1,12-13.52c7.86-4.13,15.71-8.27,23.6-12.34q12.89-6.64,25.83-13.17a21.05,21.05,0,0,1,7.5-2.43,66.79,66.79,0,0,1,14.62.55q6.2.75,12.38,1.67a8,8,0,0,0,6.21-1.61,27.37,27.37,0,0,0,6.07-6.5,35.9,35.9,0,0,0,5.76-11.76,8.94,8.94,0,0,0,.11-2.26c0-.41-.32-.61-.74-.52-.58.13-1.16.23-1.73.41-2.27.71-4.51,1.51-6.79,2.16a16.79,16.79,0,0,1-9.11.28c-3-.81-6-1.69-9-2.47a26.54,26.54,0,0,0-18,1.47c-3.76,1.7-7.36,3.78-11,5.71q-13.35,7.05-26.68,14.14l-28.4,15a25.21,25.21,0,0,1-7.06,2.87,1.74,1.74,0,0,0-1.42,1c-1.23,2.78-2.63,5.51-3.62,8.38C1278.72,554.92,1278.52,560.07,1278.45,566.8Zm36.5-20,.38.62a26.93,26.93,0,0,0,48.5-20.9c-.42-1.92,0-1.57-2-1.53-1.25,0-2.49.21-3.8.33l.67,2.75-7.32,1.39.24,2.67h.85c1.93,0,3.87,0,5.81,0,.64,0,.83.22.76.82-.09.84-.1,1.69-.23,2.52s-.4,1.85-.62,2.83l-7.1-2.1-1.76,3.75,6.17,4.08a20.88,20.88,0,0,1-4.11,4.62l-4.77-5.65-3.52,2.21,3,6.95-5.47,1.38c-.44.11-.64-.09-.68-.54-.09-.93-.21-1.87-.32-2.8-.16-1.32-.31-2.65-.48-4h-4.15l-1.26,7.26a20.57,20.57,0,0,1-5.93-2c1.06-2,2.11-4,3.13-6,.1-.21.11-.66,0-.75-1-.74-2.12-1.42-3.23-2.15l-5.1,5.44c-.93-1.1-1.77-2.13-2.65-3.12-.15-.17-.53-.35-.68-.27C1317.87,545.31,1316.45,546.06,1315,546.84ZM1298.16,557c-.62.77-1.29,1.56-1.9,2.38-2.28,3-3.51,6.59-4.74,10.13a1.24,1.24,0,0,0,0,.71,15.76,15.76,0,0,0,5.13,7.59,22.64,22.64,0,0,0,10.35,4.42,54.85,54.85,0,0,0,17.11.08,110.2,110.2,0,0,0,16.47-3.51c2.46-.72,4.91-1.5,7.36-2.25a.75.75,0,0,0-.6-.09l-5.49,1a85.58,85.58,0,0,1-21.32,1.3,32.47,32.47,0,0,1-12.23-3.13,16.74,16.74,0,0,1-9.48-12.14C1298.44,561.36,1298.39,559.2,1298.16,557Zm30.59-17.34a11.44,11.44,0,0,0,14.54,2.55c5.3-3.06,6.61-9.33,5.34-12.75Z" transform="translate(-492 -468)" fill="#e9004f"/><path d="M1286.35,536.78a12.1,12.1,0,0,1-.79,1c-2.35,2.35-4.71,4.68-7.07,7,0-.11,0-.25,0-.34.92-1.86,1.78-3.75,2.81-5.54s2.84-2,4.6-2.3C1286,536.57,1286.2,536.71,1286.35,536.78Z" transform="translate(-492 -468)" fill="#e9004f"/><path d="M1291.14,541.71c1-.6,2.06-1.23,3.12-1.79q11.61-6.2,23.25-12.35,11.35-6,22.73-12c5.81-3.08,11.6-6.18,17.41-9.23a25.05,25.05,0,0,1,8-2.62,19.42,19.42,0,0,1,6.67-.08c3.12.6,6.21,1.44,9.28,2.32s5.84,1.84,8.94,1.62c2.14-.16,4.27-.54,6.41-.89-.32.1-.63.21-1,.3s-.72.2-1.08.3c-4.59,1.38-9.09.88-13.6-.49a45.16,45.16,0,0,0-9.49-2.07,23.75,23.75,0,0,0-13.39,2.95c-9.68,5.17-19.35,10.39-29,15.53-9.13,4.83-18.31,9.59-27.47,14.38q-4.41,2.31-8.84,4.6a7.82,7.82,0,0,1-1.09.39Z" transform="translate(-492 -468)" fill="#e9004f"/><path d="M1291.14,541.71l.86.83a7.78,7.78,0,0,1-1.19.68c-1,.38-2.06.67-3.08,1a1.39,1.39,0,0,0-.69.57,36.39,36.39,0,0,0-4.58,15.48c-.2,3.39-.28,6.78-.41,9.88-.06-.93-.17-2.15-.22-3.38a58.35,58.35,0,0,1,.85-13.84,43.41,43.41,0,0,1,2.81-7.82,3.28,3.28,0,0,1,2.67-2.38A15.86,15.86,0,0,0,1291.14,541.71Z" transform="translate(-492 -468)" fill="#e9004f"/></svg>