<svg xmlns="http://www.w3.org/2000/svg" width="864" height="324" viewBox="0 0 864 324"><title>logo</title><rect width="864" height="324" rx="20" fill="#090909"/><path d="M718.57,514.54v36.12H683.29c-46.2-.84-83.58-37.8-84-83.58V383.5H469.51c-26,0-47,21.42-47.88,47.46h132.3v34.86c0,46.62-37.8,84-84.42,84.84H385.93V514.54h82.32c.42,0,.84.42,1.26,0a49.27,49.27,0,0,0,48.3-47.46H385.93V432.22c0-46.62,37.38-84.84,83.58-84.84H599.29V305H635v42.42h67.2V383.5H635v82.32a48.94,48.94,0,0,0,48.3,48.72Z" transform="translate(-360 -288)" fill="#e6e8e6"/><path d="M782.83,362.92c13.44-9.66,29.82-15.12,47.88-15.54h35.7V383.5h-35.7a48.31,48.31,0,0,0-47.88,48.72V550.66h-35.7V347.38h35.7Z" transform="translate(-360 -288)" fill="#e6e8e6"/><path d="M925,447.93c3.62-2,7.22-4.12,10.88-6.06q29.54-15.67,59.1-31.3l48.62-25.71c11.5-6.09,22.89-12.38,34.51-18.24a67.16,67.16,0,0,1,46.41-5.84c6.36,1.45,12.69,3.13,18.9,5.1a35,35,0,0,0,21.54-.21c5.08-1.57,10.12-3.28,15.19-4.89a13.52,13.52,0,0,1,2.9-.56c7.18-.58,12,4.63,11.28,12.18-.55,6-2.66,11.42-5.17,16.74-5,10.56-11.21,20.29-19.67,28.44-4.68,4.51-9.82,8.5-16.42,9.51a40.23,40.23,0,0,1-10.45-.18c-12.93-1.47-25.83-3.13-38.75-4.7a18.14,18.14,0,0,0-2.1,0c4,19.26,1.11,37.18-10.36,53.34a63.64,63.64,0,0,1-30.81,23.52,65.51,65.51,0,0,1-77.36-26c-.41.17-.86.32-1.28.54-6.61,3.47-13.18,7-19.83,10.41-2.86,1.47-4.56,3.23-4.76,6.82-.55,9.47.09,18.57,5.55,26.73,4.42,6.61,10.75,10.73,18.05,13.46,9.33,3.5,19.08,4.56,28.95,4.7a210.56,210.56,0,0,0,37.17-3.24c13.23-2.18,26.25-5.26,39.21-8.63,5.19-1.35,10.32-2.93,15.46-4.44a2.85,2.85,0,0,1,3.49,1.06,2.51,2.51,0,0,1-.15,3.21,3.67,3.67,0,0,1-1.43,1.05c-8.15,3.53-16.21,7.33-24.52,10.46-10.61,4-21.33,7.79-32.19,11.09a219.77,219.77,0,0,1-45.14,8.85,120.42,120.42,0,0,1-30.23-.73c-11.65-2-22.47-5.85-30.81-14.65-2.84-3-5.1-6.55-7.64-9.88-.32.88-.78,2-1.17,3.24-.62,1.87-1.18,3.77-1.81,5.64-2.19,6.51-7.69,10.13-14.69,9.88a15.68,15.68,0,0,1-15-14c-1-11-1.76-22-1.16-33.08.62-11.34,2.12-22.52,6.63-33.08a25,25,0,0,1,1.63-2.83q7.83-7.77,15.66-15.56A24.66,24.66,0,0,0,925,447.93Zm-17.5,66.5c.33,4.29.94,12.06,1.54,19.83.22,2.92,2.07,4.52,4.59,5.46,3,1.11,7.45-.18,8.65-3.94,3.23-10.13,6.7-20.23,10.72-30.07,5.31-13,14-23.29,26.57-29.92,17.39-9.16,34.79-18.32,52.25-27.33q28.53-14.73,57.21-29.18c5.24-2.66,10.65-4.79,16.61-5.39,10.87-1.08,21.63-.06,32.38,1.24q13.73,1.65,27.41,3.69a17.66,17.66,0,0,0,13.75-3.58,60.67,60.67,0,0,0,13.44-14.39c5.58-8,10.36-16.45,12.76-26a19.09,19.09,0,0,0,.24-5c0-.91-.7-1.34-1.62-1.14-1.29.27-2.59.51-3.84.9-5,1.58-10,3.34-15.05,4.78-6.64,1.9-13.39,2.44-20.16.62s-13.31-3.74-20-5.48a58.87,58.87,0,0,0-39.93,3.27c-8.33,3.77-16.3,8.36-24.4,12.64q-29.57,15.63-59.09,31.31Q970.1,433.38,938.65,450c-5,2.64-10,5.32-15.64,6.35a3.9,3.9,0,0,0-3.14,2.32c-2.73,6.17-5.82,12.22-8,18.57C908.11,488.12,907.68,499.52,907.51,514.43Zm80.84-44.21c.38.62.59,1,.83,1.36a59.63,59.63,0,0,0,107.41-46.27c-.93-4.26,0-3.49-4.34-3.39-2.77.06-5.53.46-8.42.72.54,2.2,1,4,1.48,6.09l-16.21,3.09c.18,2,.36,3.86.54,5.9h1.88c4.28,0,8.57.06,12.86,0,1.42,0,1.84.46,1.69,1.8-.2,1.85-.21,3.73-.51,5.57-.33,2.07-.88,4.11-1.37,6.28l-15.72-4.66c-1.35,2.87-2.6,5.54-3.89,8.31l13.65,9a46.19,46.19,0,0,1-9.1,10.23l-10.56-12.5-7.81,4.88,6.67,15.4-12.11,3c-1,.24-1.41-.2-1.5-1.18-.2-2.07-.46-4.14-.71-6.22-.34-2.92-.7-5.84-1.06-8.9h-9.2c-.92,5.32-1.84,10.61-2.79,16.09a46,46,0,0,1-13.13-4.34c2.36-4.53,4.68-8.94,6.92-13.39.23-.45.26-1.45,0-1.65-2.31-1.64-4.7-3.15-7.15-4.75l-11.3,12c-2-2.43-3.92-4.71-5.87-6.91-.33-.38-1.17-.76-1.51-.6C994.81,466.82,991.67,468.49,988.35,470.22Zm-37.19,22.45c-1.37,1.71-2.85,3.45-4.21,5.28-5,6.74-7.77,14.58-10.49,22.42a2.65,2.65,0,0,0,.09,1.57,34.8,34.8,0,0,0,11.36,16.81c6.71,5.42,14.55,8.25,22.92,9.8,12.61,2.33,25.26,1.79,37.89.16a241.37,241.37,0,0,0,36.46-7.77c5.46-1.59,10.88-3.31,16.32-5a1.73,1.73,0,0,0-1.35-.21c-4.05.73-8.08,1.5-12.14,2.19-15.63,2.7-31.35,4.14-47.21,2.89-9.43-.75-18.59-2.64-27.1-6.93-11.21-5.66-18.55-14.46-21-26.89C951.79,502.38,951.67,497.58,951.16,492.67Zm67.74-38.4c6.44,8.23,20.18,12.58,32.2,5.64,11.73-6.76,14.65-20.64,11.83-28.22Z" transform="translate(-360 -288)" fill="#e9004f"/><path d="M925,447.93a24.66,24.66,0,0,1-1.74,2.17q-7.82,7.8-15.66,15.56c0-.26-.13-.56,0-.77,2-4.1,3.95-8.29,6.22-12.26s6.29-4.4,10.19-5.1C924.3,447.48,924.67,447.79,925,447.93Z" transform="translate(-360 -288)" fill="#e9004f"/><path d="M935.61,458.85c2.3-1.32,4.57-2.72,6.91-4Q968.24,441.2,994,427.55q25.17-13.35,50.34-26.67c12.86-6.81,25.68-13.67,38.56-20.45a55.6,55.6,0,0,1,17.74-5.79,43.53,43.53,0,0,1,14.75-.19c6.93,1.35,13.77,3.2,20.56,5.15,6.5,1.87,12.94,4.07,19.81,3.58,4.74-.35,9.44-1.2,14.18-2-.7.22-1.4.46-2.1.67s-1.59.43-2.38.66c-10.17,3-20.15,1.93-30.13-1.1-6.87-2.08-13.8-4-21-4.58a52.7,52.7,0,0,0-29.63,6.53c-21.46,11.45-42.86,23-64.35,34.39-20.22,10.71-40.54,21.25-60.82,31.85q-9.78,5.12-19.58,10.19a17.79,17.79,0,0,1-2.42.86Z" transform="translate(-360 -288)" fill="#e9004f"/><path d="M935.61,458.85l1.91,1.84a18,18,0,0,1-2.62,1.5c-2.26.85-4.58,1.51-6.84,2.34a3.08,3.08,0,0,0-1.53,1.27,80.28,80.28,0,0,0-10.13,34.27c-.44,7.5-.64,15-.91,21.88-.14-2.05-.37-4.77-.49-7.48a128.57,128.57,0,0,1,1.89-30.66c1.21-6.08,3.89-11.63,6.21-17.31,1.17-2.87,2.66-4.73,5.93-5.26C931.29,460.87,933.42,459.68,935.61,458.85Z" transform="translate(-360 -288)" fill="#e9004f"/><rect x="26" y="280" width="480" height="18" fill="#e6e8e6"/></svg>